<svg xmlns="http://www.w3.org/2000/svg" width="94.016" height="83.267" viewBox="0 0 94.016 83.267">
  <g id="Group_754" data-name="Group 754" transform="translate(0.508)">
    <text id="Trusted_by" data-name="Trusted by" transform="translate(0.009 13)" fill="#fff" font-size="12" font-family="Poppins-Regular, Poppins"><tspan x="0" y="0">Trusted by</tspan></text>
    <path id="Path_2225" data-name="Path 2225" d="M1.094,1.926A.118.118,0,0,1,.96,1.792l.053-18.359a.094.094,0,0,1,.107-.107H9.672q.134,0,.134.107v3.02a.094.094,0,0,1-.107.107H4.22V-9.3H9.7q.107,0,.107.134l.027,3.02q0,.107-.134.107H4.22v7.83a.118.118,0,0,1-.134.134Zm15.1.267a4.909,4.909,0,0,1-2.632-.735A5.643,5.643,0,0,1,11.65-.493a5.165,5.165,0,0,1-.722-2.686l.027-8.471a5.168,5.168,0,0,1,.708-2.672,5.417,5.417,0,0,1,1.911-1.924,5,5,0,0,1,2.619-.722,4.908,4.908,0,0,1,2.619.722A5.49,5.49,0,0,1,20.7-14.322,5.168,5.168,0,0,1,21.4-11.65l.027,8.471a5.24,5.24,0,0,1-.708,2.686,5.529,5.529,0,0,1-1.9,1.951A4.909,4.909,0,0,1,16.193,2.193Zm0-3.234A1.851,1.851,0,0,0,17.6-1.7a2.134,2.134,0,0,0,.6-1.483L18.17-11.65a2.139,2.139,0,0,0-.561-1.5,1.836,1.836,0,0,0-1.416-.615,1.909,1.909,0,0,0-1.416.6,2.072,2.072,0,0,0-.588,1.51v8.471a2.131,2.131,0,0,0,.588,1.51A1.871,1.871,0,0,0,16.193-1.041Zm7.376,2.966q-.107,0-.107-.134l.053-18.359a.094.094,0,0,1,.107-.107h5.4a5.19,5.19,0,0,1,2.659.708,5.418,5.418,0,0,1,1.937,1.9,5.075,5.075,0,0,1,.722,2.686,5.059,5.059,0,0,1-.294,1.777,5.52,5.52,0,0,1-.695,1.336,4.651,4.651,0,0,1-.722.815,5.451,5.451,0,0,1,1.443,3.768L34.1,1.792a.118.118,0,0,1-.134.134h-3.02q-.107,0-.107-.08V-3.686a2.329,2.329,0,0,0-.681-1.67,2.228,2.228,0,0,0-1.67-.708H26.722l-.027,7.857q0,.134-.107.134Zm3.153-11.2h2.3a2.064,2.064,0,0,0,1.47-.615,2,2,0,0,0,.641-1.5,1.985,1.985,0,0,0-.628-1.47,2.05,2.05,0,0,0-1.483-.615h-2.3ZM38.48,1.926q-.107,0-.107-.134V-13.44H34.9a.118.118,0,0,1-.134-.134l.027-2.993a.094.094,0,0,1,.107-.107H45.054q.134,0,.134.107v2.993q0,.134-.107.134h-3.5l.027,15.233q0,.134-.107.134Zm12.934.267A4.929,4.929,0,0,1,48.8,1.458,5.458,5.458,0,0,1,46.885-.506a5.311,5.311,0,0,1-.708-2.7l.053-13.362a.094.094,0,0,1,.107-.107H49.33a.094.094,0,0,1,.107.107V-3.205a2.193,2.193,0,0,0,.575,1.537,1.83,1.83,0,0,0,1.4.628,1.859,1.859,0,0,0,1.43-.628,2.193,2.193,0,0,0,.575-1.537V-16.567a.094.094,0,0,1,.107-.107h2.993a.094.094,0,0,1,.107.107l.053,13.362a5.362,5.362,0,0,1-.708,2.726,5.386,5.386,0,0,1-1.9,1.951A5.025,5.025,0,0,1,51.414,2.193Zm7.616-.267q-.214,0-.214-.187l-.027-18.2A.189.189,0,0,1,59-16.674h2.405L65.925-6.145,65.792-16.46q0-.214.241-.214h2.646q.16,0,.16.214l.027,18.226q0,.16-.134.16H66.38L61.757-7.909l.187,9.621q0,.214-.241.214Zm12.266,0q-.107,0-.107-.134l.027-18.359a.094.094,0,0,1,.107-.107H79.9q.107,0,.107.134v2.993a.094.094,0,0,1-.107.107H74.424v4.169H79.9a.094.094,0,0,1,.107.107l.027,3.02a.094.094,0,0,1-.107.107H74.424v4.677h5.505q.107,0,.107.134V1.819a.094.094,0,0,1-.107.107Z" transform="translate(-0.96 38.16)" fill="#fff"/>
    <g id="Group_753" data-name="Group 753" transform="translate(0 43.983)">
      <path id="Path_2222" data-name="Path 2222" d="M28.665-19.466H12.984v5.8A6.951,6.951,0,0,1,15.7-15.337a11.1,11.1,0,0,1,3.816-.627,10.942,10.942,0,0,1,6.3,1.725,10.249,10.249,0,0,1,3.737,4.548,15.577,15.577,0,0,1,1.2,6.168q0,6.168-3.5,9.7T17.532,9.7a17.457,17.457,0,0,1-7.5-1.49A11.133,11.133,0,0,1,5.2,4.055,11.605,11.605,0,0,1,3.471-2.06h9.984A3.537,3.537,0,0,0,14.5.03a3.543,3.543,0,0,0,2.614.889,3.246,3.246,0,0,0,2.77-1.254,5.443,5.443,0,0,0,.941-3.345,4.416,4.416,0,0,0-.993-3.11,3.727,3.727,0,0,0-2.875-1.072,3.478,3.478,0,0,0-2.274.706,2.726,2.726,0,0,0-1.019,1.751H3.68v-23.1H28.665Z" transform="translate(-3.471 28.509)" fill="#f80c00" stroke="#cb1007" stroke-width="1"/>
      <path id="Path_2223" data-name="Path 2223" d="M52.689-9.754q0-8.99,3.659-14.165t11.5-5.175q7.841,0,11.526,5.175T83.058-9.754q0,9.1-3.659,14.27T67.847,9.69q-7.893,0-11.526-5.175T52.689-9.754Zm20.229,0a20.191,20.191,0,0,0-.993-7.187,3.945,3.945,0,0,0-4.077-2.483,3.945,3.945,0,0,0-4.077,2.483,20.191,20.191,0,0,0-.993,7.187,21.091,21.091,0,0,0,.967,7.292Q64.711.02,67.847.02t4.1-2.483A21.091,21.091,0,0,0,72.918-9.754Z" transform="translate(-22.911 29.094)" fill="#ffbb03" stroke="#d69f09" stroke-width="1"/>
      <path id="Path_2224" data-name="Path 2224" d="M52.689-9.754q0-8.99,3.659-14.165t11.5-5.175q7.841,0,11.526,5.175T83.058-9.754q0,9.1-3.659,14.27T67.847,9.69q-7.893,0-11.526-5.175T52.689-9.754Zm20.229,0a20.191,20.191,0,0,0-.993-7.187,3.945,3.945,0,0,0-4.077-2.483,3.945,3.945,0,0,0-4.077,2.483,20.191,20.191,0,0,0-.993,7.187,21.091,21.091,0,0,0,.967,7.292Q64.711.02,67.847.02t4.1-2.483A21.091,21.091,0,0,0,72.918-9.754Z" transform="translate(9.951 29.094)" fill="#008cfd" stroke="#086cbe" stroke-width="1"/>
    </g>
  </g>
</svg>