<svg xmlns="http://www.w3.org/2000/svg" width="192" height="63" viewBox="0 0 192 63">
  <g id="Group_756" data-name="Group 756" transform="translate(0 -0.07)">
    <text id="Score_9.9_out_of_10" data-name="Score 9.9 out of 10" transform="translate(0 22.07)" fill="#fff" font-size="21" font-family="Poppins-Regular, Poppins"><tspan x="0" y="0">Score 9.9 out of 10</tspan></text>
    <g id="Group_755" data-name="Group 755" transform="translate(0 27.837)">
      <g id="Group_752" data-name="Group 752">
        <rect id="Rectangle_336" data-name="Rectangle 336" width="36" height="35" rx="5" transform="translate(0 0.233)" fill="#ebc136"/>
        <path id="Polygon_1" data-name="Polygon 1" d="M12,0l2.833,9.549H24l-7.416,5.9L19.416,25,12,19.1,4.584,25l2.833-9.549L0,9.549H9.167Z" transform="translate(6 5.233)" fill="#fff"/>
      </g>
      <g id="Group_752-2" data-name="Group 752" transform="translate(38.972)">
        <rect id="Rectangle_336-2" data-name="Rectangle 336" width="36" height="35" rx="5" transform="translate(0.028 0.233)" fill="#ebc136"/>
        <path id="Polygon_1-2" data-name="Polygon 1" d="M12,0l2.833,9.549H24l-7.416,5.9L19.416,25,12,19.1,4.584,25l2.833-9.549L0,9.549H9.167Z" transform="translate(6.028 5.233)" fill="#fff"/>
      </g>
      <g id="Group_752-3" data-name="Group 752" transform="translate(77.944)">
        <rect id="Rectangle_336-3" data-name="Rectangle 336" width="36" height="35" rx="5" transform="translate(0.056 0.233)" fill="#ebc136"/>
        <path id="Polygon_1-3" data-name="Polygon 1" d="M12,0l2.833,9.549H24l-7.416,5.9L19.416,25,12,19.1,4.584,25l2.833-9.549L0,9.549H9.167Z" transform="translate(6.056 5.233)" fill="#fff"/>
      </g>
      <g id="Group_752-4" data-name="Group 752" transform="translate(116.916)">
        <rect id="Rectangle_336-4" data-name="Rectangle 336" width="36" height="35" rx="5" transform="translate(0.083 0.233)" fill="#ebc136"/>
        <path id="Polygon_1-4" data-name="Polygon 1" d="M12.5,0l2.951,9.549H25l-7.725,5.9L20.225,25,12.5,19.1,4.775,25l2.951-9.549L0,9.549H9.549Z" transform="translate(5.083 5.233)" fill="#fff"/>
      </g>
      <g id="Group_752-5" data-name="Group 752" transform="translate(155.889)">
        <rect id="Rectangle_336-5" data-name="Rectangle 336" width="36" height="35" rx="5" transform="translate(0.111 0.233)" fill="#ebc136"/>
        <path id="Polygon_1-5" data-name="Polygon 1" d="M12.5,0l2.951,9.549H25l-7.725,5.9L20.225,25,12.5,19.1,4.775,25l2.951-9.549L0,9.549H9.549Z" transform="translate(5.111 5.233)" fill="#fff"/>
      </g>
    </g>
  </g>
</svg>