<svg xmlns="http://www.w3.org/2000/svg" xmlns:xlink="http://www.w3.org/1999/xlink" width="2372.149" height="1026.86" viewBox="0 0 2372.149 1026.86">
  <defs>
    <clipPath id="clip-path">
      <rect id="Rectangle_310" data-name="Rectangle 310" width="2308.7" height="828.797" transform="translate(0 -0.001)" fill="#fff"/>
    </clipPath>
  </defs>
  <g id="Group_702" data-name="Group 702" transform="matrix(0.996, 0.087, -0.087, 0.996, 72.234, 0.001)" opacity="0.2">
    <g id="Group_701" data-name="Group 701" clip-path="url(#clip-path)">
      <path id="Path_2166" data-name="Path 2166" d="M1793.314,828.8c-27.084,0-54.52-16.691-85.043-51.407-33.116-37.666-67.47-93.945-103.841-153.528C1513,474.08,1399.213,287.672,1217.86,240.9,1018.7,189.529,810.874,327.979,659.131,429.071,573.9,485.853,502.706,533.277,455.8,533.284c-12.9,0-23.96-3.586-32.974-11.555-21.231-18.768-24.7-56.2-10.6-114.428,12.426-51.326,36.567-112.1,59.914-170.865,41.21-103.736,80.134-201.719,46.7-228.574-25.213-20.255-87.187,4.391-184.2,73.253C250.658,140.732,138.294,235.063.677,361.487L0,360.751C137.648,234.3,250.045,139.941,334.068,80.3c47.066-33.408,86.279-56.671,116.55-69.141,32.427-13.359,55.6-14.732,68.857-4.076,34.005,27.317-5.052,125.633-46.4,229.722C449.74,295.542,425.611,356.278,413.2,407.537c-14,57.835-10.636,94.943,10.291,113.443C464.7,557.4,550.255,500.4,658.577,428.239c78.558-52.336,167.6-111.656,263.095-152.234,110.893-47.121,207.86-58.922,296.438-36.076C1399.855,286.8,1513.76,473.4,1605.284,623.341c36.347,59.545,70.678,115.786,103.738,153.388,36.388,41.385,68.277,56.981,100.373,49.082,32.711-8.054,46.651-35.786,67.754-77.762,19.581-38.952,46.4-92.3,101.413-150.8,82.719-87.963,193.708-150.472,329.886-185.789l.252.968c-135.992,35.269-246.823,97.682-329.409,185.505-54.915,58.4-81.7,111.669-101.248,150.566-21.227,42.225-35.25,70.12-68.409,78.283a67.986,67.986,0,0,1-16.32,2.015" fill="#fff"/>
      <path id="Path_2167" data-name="Path 2167" d="M1789.415,812.907c-27.324,0-54.95-15.938-85.549-49.016-33.716-36.449-68.527-91.113-105.383-148.986-90.073-141.439-202.172-317.465-378.709-362.463-196.026-49.738-399.192,78.7-547.538,172.477-108.56,68.628-194.307,122.837-237.894,86.733-21.809-18.065-26.332-53.9-13.828-109.554,11.018-49.04,33.5-107.02,55.243-163.09,38.278-98.713,74.433-191.952,40.262-217.5C502.269,11.23,478.9,13.2,444.571,27.539c-89.105,37.219-242.2,150.714-442.74,328.216l-.663-.749C201.788,177.432,354.98,63.876,444.185,26.616c34.683-14.486,58.376-16.418,72.433-5.909,34.779,26-1.509,119.585-39.929,218.663-21.729,56.036-44.2,113.98-55.2,162.948-12.414,55.251-8,90.763,13.49,108.564,43.027,35.638,128.5-18.4,236.722-86.808C748.68,375.41,835.928,320.255,929.358,282.932c108.382-43.3,203.459-53.588,290.663-31.459,176.921,45.1,289.138,221.307,379.305,362.895,36.831,57.834,71.619,112.461,105.275,148.844,37.065,40.071,69.669,54.82,102.622,46.415,32.555-8.306,46.777-35.587,68.3-76.881,20.849-39.993,46.8-89.767,101.1-146.341,46.3-48.237,101.858-88.917,165.125-120.913,48.607-24.581,103.059-44.622,161.845-59.567l.246.969c-134.749,34.257-244.6,94.887-326.495,180.2-54.208,56.472-80.119,106.174-100.938,146.111-21.651,41.533-35.956,68.971-68.944,77.387a72.767,72.767,0,0,1-18.055,2.312" fill="#fff"/>
      <path id="Path_2168" data-name="Path 2168" d="M1785.34,797.057c-27.523,0-55.3-15.158-85.933-46.549-34.326-35.18-69.6-88.171-106.947-144.273-88.682-133.219-199.048-299.013-370.771-342.247-192.883-48.12-383.33,65.6-536.358,156.978-83.959,50.135-154.264,92.112-202.809,92.116-14.137,0-26.42-3.556-36.668-11.507-22.371-17.357-27.946-51.585-17.043-104.638,9.6-46.734,30.421-101.9,50.552-155.256,35.367-93.736,68.773-182.273,33.828-206.526-13.812-9.586-37.038-7.58-71,6.134C348.742,79.013,192.764,188.658,2.985,350.024l-.647-.761C192.2,187.828,348.271,78.125,441.814,40.361c34.3-13.848,57.836-15.82,71.947-6.027,35.586,24.7,2.046,113.589-33.463,207.7-20.116,53.316-40.918,108.448-50.507,155.1-10.819,52.643-5.365,86.546,16.676,103.647,44.9,34.84,130.271-16.139,238.352-80.677,75.39-45.018,160.839-96.043,252.208-130.159,105.88-39.535,199.074-48.346,284.905-26.931,76.6,19.286,147.443,64.1,216.571,137.019,60.083,63.374,110.4,138.958,154.789,205.643,37.32,56.063,72.57,109.017,106.831,144.129,37.757,38.7,71.1,52.566,104.926,43.635,32.4-8.552,46.907-35.375,68.867-75.976,21.023-38.869,47.187-87.243,100.782-141.905,46.111-47.026,101.34-86.611,164.157-117.655,48.59-24.014,100.894-42.828,159.9-57.517l.242.971c-133.507,33.235-242.376,92.08-323.583,174.9-53.5,54.562-79.624,102.866-100.617,141.681-21.29,39.363-36.672,67.8-69.49,76.467a77.979,77.979,0,0,1-19.965,2.646" fill="#fff"/>
      <path id="Path_2169" data-name="Path 2169" d="M1781.069,781.249c-27.678,0-55.571-14.354-86.18-44.009-34.947-33.857-70.692-85.117-108.536-139.386C1499.1,472.732,1390.512,317.015,1223.6,275.532c-189.748-46.513-375.74,57.838-525.188,141.684C615.246,463.877,545.5,503,496.179,503.007c-14.857,0-27.853-3.547-38.814-11.509-22.919-16.65-29.539-49.258-20.24-99.69,8.189-44.411,27.331-96.753,45.843-147.372,32.474-88.8,63.147-172.669,27.393-195.635-13.867-8.909-36.947-6.868-70.557,6.236C341.819,93.241,183.025,198.671,4.137,344.292l-.631-.775C182.47,197.832,341.362,92.345,439.441,54.1c33.929-13.229,57.3-15.24,71.461-6.146,36.428,23.4,5.621,107.637-26.995,196.82-18.5,50.58-37.625,102.882-45.8,147.21-9.223,50.015-2.731,82.3,19.844,98.7,46.828,34.02,132.062-13.8,239.972-74.344,73.8-41.4,157.438-88.33,246.752-119.289,103.392-35.839,194.706-43.2,279.165-22.494,74.477,18.51,143.546,60.795,211.156,129.271,58.816,59.571,108.415,130.7,152.175,193.45,37.816,54.229,73.535,105.449,108.412,139.24,38.464,37.266,72.559,50.212,107.291,40.738,32.241-8.792,47.842-36.581,69.436-75.043,21.195-37.751,47.57-84.733,100.454-137.5,45.922-45.818,100.827-84.306,163.192-114.4,47.88-23.1,99.545-41.244,157.947-55.465l.236.972c-134.128,32.658-239.019,88.134-320.668,169.6-52.786,52.667-79.126,99.582-100.289,137.278-21.713,38.674-37.4,66.616-70.045,75.519a83.565,83.565,0,0,1-22.07,3.024" fill="#fff"/>
      <path id="Path_2170" data-name="Path 2170" d="M1776.608,765.488c-27.762,0-55.694-13.525-86.2-41.4-35.543-32.48-71.72-81.939-110.021-134.3-85.8-117.3-192.585-263.286-354.87-302.711-186.628-45.338-368.279,49.949-514.236,126.512-82.2,43.122-151.258,79.34-201.266,79.345-15.638,0-29.4-3.538-41.139-11.515-23.45-15.941-31.111-46.923-23.419-94.716,6.771-42.075,24.234-91.575,41.123-139.446,29.6-83.889,57.549-163.126,20.953-184.811-14.113-8.362-36.392-6.349-70.114,6.339C334.6,107.471,173.052,208.322,5.29,338.561l-.614-.79c167.838-130.3,329.479-231.2,432.392-269.922,34.028-12.8,56.581-14.794,70.976-6.264,37.3,22.1,9.216,101.717-20.52,186-16.874,47.83-34.322,97.287-41.079,139.273-7.624,47.37-.1,78.029,22.994,93.73,48.768,33.151,133.766-11.438,241.378-67.888,72.234-37.892,154.1-80.839,241.411-108.706,100.964-32.224,190.436-38.078,273.526-17.892,72.432,17.6,139.782,57.335,205.9,121.489,57.566,55.858,106.432,122.663,149.544,181.6,38.27,52.321,74.419,101.74,109.889,134.152,39.141,35.768,73.976,47.759,109.618,37.728,32.082-9.027,47.993-36.315,70.015-74.083,21.364-36.638,47.951-82.235,100.118-133.117,81.083-79.085,185.173-132.91,318.223-164.554l.231.973c-132.868,31.6-236.807,85.342-317.756,164.3-52.071,50.788-78.619,96.32-99.952,132.906-22.141,37.97-38.137,65.406-70.608,74.542a89.524,89.524,0,0,1-24.365,3.448" fill="#fff"/>
      <path id="Path_2171" data-name="Path 2171" d="M1771.875,749.786c-27.8,0-55.731-12.672-86.09-38.723-36.183-31.049-72.836-78.655-111.64-129.056-84.3-109.49-189.212-245.753-346.712-283.385-183.516-43.847-360.75,42.35-503.16,111.611C616.65,462.576,531.644,503.919,480.389,471.34c-23.966-15.234-32.66-44.583-26.577-89.724,5.354-39.728,21.134-86.376,36.4-131.488,26.727-79.007,51.973-153.632,14.5-174.038-14.158-7.708-36.3-5.661-69.67,6.444-109.731,39.8-269.954,133.37-428.6,250.3l-.593-.8C164.563,215.045,324.88,121.426,434.7,81.594c33.662-12.209,56.061-14.239,70.489-6.382,38.212,20.808,12.836,95.82-14.03,175.236-15.246,45.067-31.011,91.669-36.352,131.3-6.025,44.715,2.519,73.744,26.122,88.747,50.785,32.279,135.57-8.957,242.911-61.163C866.388,340,1043.8,253.718,1227.665,297.65c70.314,16.8,135.887,54.08,200.464,113.97C1484.4,463.811,1532.5,526.281,1574.937,581.4c38.772,50.359,75.394,97.925,111.5,128.908,39.868,34.21,75.488,45.2,112.092,34.588,31.919-9.253,48.145-36.031,70.6-73.091,21.529-35.532,48.323-79.751,99.773-128.768,80.384-76.582,183.522-128.671,315.306-159.245l.227.975C2152.83,415.3,2049.845,467.3,1969.594,543.758c-51.354,48.924-78.11,93.081-99.609,128.561-22.574,37.255-38.883,64.172-71.176,73.535a96.244,96.244,0,0,1-26.934,3.932" fill="#fff"/>
      <path id="Path_2172" data-name="Path 2172" d="M1766.855,734.151c-27.768,0-55.636-11.8-85.773-35.982C1644.24,668.6,1607.1,622.91,1567.776,574.532c-87.061-107.109-185.737-228.51-338.429-264.364-180.412-42.363-353.235,34.867-492.1,96.921-79.878,35.7-147.264,65.805-198.474,65.807-17.581,0-33.25-3.547-46.87-11.635-24.468-14.528-34.187-42.241-29.713-84.721,3.937-37.375,18.032-81.162,31.664-123.507,23.869-74.143,46.414-144.175,8.028-163.3-14.2-7.07-36.192-4.991-69.226,6.548C315.164,137.325,156.262,223.612,7.591,327.1l-.57-.821c148.74-103.538,307.732-189.872,425.3-230.942,33.3-11.634,55.546-13.7,70-6.5,39.156,19.506,16.483,89.936-7.521,164.5-13.616,42.3-27.695,86.032-31.622,123.3-4.429,42.051,5.132,69.448,29.229,83.757,52.85,31.384,137.393-6.4,244.425-54.225,139-62.115,312-139.422,492.74-96.982,68.185,16.011,131.965,50.876,194.983,106.587,54.964,48.589,102.263,106.78,143.993,158.12,39.287,48.336,76.4,93.99,113.155,123.488,40.613,32.59,77.042,42.547,114.65,31.322,31.752-9.476,48.295-35.731,71.191-72.07,21.7-34.43,48.694-77.28,99.424-124.449,79.689-74.092,181.872-124.445,312.391-153.936l.221.976c-130.342,29.45-232.375,79.724-311.93,153.692-50.636,47.08-77.6,89.87-99.26,124.25-23.013,36.524-39.64,62.912-71.752,72.5a103.645,103.645,0,0,1-29.787,4.481" fill="#fff"/>
      <path id="Path_2173" data-name="Path 2173" d="M1761.505,718.59c-27.655,0-55.382-10.9-85.217-33.183-37.519-28.022-75.165-71.747-115.02-118.038-85.38-99.166-182.152-211.564-330.005-245.656-177.308-40.887-345.733,27.5-481.066,82.449-106.933,43.418-191.4,77.71-246.784,47.019-24.955-13.827-35.692-39.9-32.825-79.716,2.521-35.018,14.931-75.937,26.932-115.508,21.016-69.295,40.866-134.746,1.533-152.578-14.227-6.449-36.084-4.336-68.782,6.652-60.714,20.4-223.326,81.841-421.53,211.34l-.547-.838C206.494,190.971,369.2,129.5,429.952,109.083c32.954-11.074,55.041-13.175,69.514-6.615,40.131,18.194,20.158,84.053-.989,153.779-11.985,39.519-24.378,80.384-26.892,115.29-2.836,39.385,7.733,65.15,32.313,78.769,54.973,30.462,139.239-3.754,245.923-47.07,135.463-55,304.053-123.451,481.666-82.5,66.041,15.228,128.01,47.722,189.448,99.338,53.629,45.056,100.094,99.025,141.091,146.64,39.818,46.249,77.429,89.934,114.861,117.891,41.381,30.907,78.652,39.779,117.3,27.92,31.583-9.692,48.446-35.413,71.787-71.012,21.856-33.337,49.058-74.826,99.07-120.166,45.231-41.006,98.856-75.108,159.385-101.361,44.938-19.49,94.033-34.951,150.089-47.266l.215.977c-129.074,28.356-230.155,76.895-309.017,148.391-49.917,45.254-77.08,86.684-98.906,119.973-23.455,35.775-40.4,61.623-72.33,71.42a111.77,111.77,0,0,1-32.973,5.107" fill="#fff"/>
      <path id="Path_2174" data-name="Path 2174" d="M1755.772,703.119c-27.448,0-54.946-9.982-84.381-30.332-38.223-26.424-76.391-68.119-116.8-112.263-83.638-91.365-178.436-194.922-321.412-227.266-174.2-39.412-338.235,20.254-470.036,68.2C711.71,420.16,663.133,437.829,621.4,446.7c-46.231,9.82-80.065,8.044-106.477-5.6-25.426-13.13-37.174-37.567-35.913-74.709,1.109-32.661,11.833-70.709,22.2-107.5,18.167-64.455,35.326-125.335-4.988-141.866-14.25-5.844-35.965-3.7-68.339,6.757C328,156.032,174.4,215.5,9.889,315.641l-.519-.855C173.958,214.6,327.639,155.1,427.579,122.827c33.059-10.674,54.348-12.75,69.026-6.73,41.14,16.869,23.864,78.166,5.572,143.062-10.354,36.738-21.062,74.727-22.166,107.266-1.247,36.716,10.323,60.852,35.372,73.787,57.145,29.51,141.112-1.032,247.415-39.7,131.925-47.986,296.108-107.706,470.6-68.232,63.876,14.451,124.011,44.618,183.84,92.225,52.267,41.591,97.862,91.4,138.09,135.342,40.371,44.1,78.5,85.756,116.632,112.116,42.175,29.156,80.322,36.9,120.052,24.379,31.408-9.9,48.595-35.075,72.383-69.916,22.019-32.252,49.422-72.39,98.718-115.923,45.074-39.8,98.384-72.81,158.447-98.1,44.178-18.6,92.625-33.391,148.109-45.221l.209.978c-127.8,27.249-227.931,74.054-306.1,143.088-49.2,43.451-76.566,83.532-98.554,115.737-23.9,35.008-41.171,60.3-72.908,70.306a120.769,120.769,0,0,1-36.54,5.822" fill="#fff"/>
      <path id="Path_2175" data-name="Path 2175" d="M1749.593,687.755c-27.133,0-54.293-9.049-83.219-27.439-38.952-24.766-77.67-64.374-118.661-106.309-81.831-83.712-174.58-178.594-312.621-209.2C1064,306.864,904.358,357.935,776.083,398.97c-51.145,16.361-99.453,31.815-141.363,39.259-46.463,8.253-80.872,5.962-108.283-7.209-25.884-12.437-38.633-35.24-38.975-69.71-.3-30.3,8.737-65.478,17.478-99.495,15.32-59.621,29.79-115.935-11.54-131.15-14.454-5.322-35.395-3.206-67.9,6.862-103.092,31.939-258.22,84.559-414.469,172.385l-.49-.872c156.333-87.873,311.527-140.515,414.663-172.468,32.723-10.138,53.862-12.251,68.538-6.846,42.178,15.528,27.6,72.267,12.162,132.338-8.724,33.954-17.746,69.065-17.446,99.236.338,34.052,12.9,56.562,38.408,68.818,27.214,13.075,61.43,15.34,107.675,7.126,41.844-7.432,90.121-22.876,141.233-39.226,128.39-41.073,288.177-92.187,459.531-54.192C1373.641,374.5,1466.5,469.5,1548.428,553.309c40.95,41.891,79.629,81.46,118.483,106.163,43,27.337,82.057,33.913,122.928,20.689,31.227-10.1,48.739-34.716,72.977-68.781,22.18-31.173,49.785-69.97,98.366-111.718,44.927-38.606,97.923-70.512,157.516-94.831,44.012-17.96,90.444-31.679,146.124-43.177l.2.98c-80.72,16.667-199.97,49.085-303.191,137.787-48.489,41.668-76.054,80.41-98.2,111.538-24.35,34.223-41.942,58.948-73.484,69.153a130.921,130.921,0,0,1-40.554,6.643" fill="#fff"/>
      <path id="Path_2176" data-name="Path 2176" d="M1742.887,672.514c-26.687,0-53.387-8.1-81.672-24.513-39.716-23.048-79.015-60.511-120.621-100.175-79.944-76.212-170.555-162.593-303.588-191.478-167.959-36.467-323.215,6.135-447.963,40.369-50.849,13.953-98.878,27.133-140.966,33.109-46.694,6.627-81.69,3.805-110.128-8.888-26.326-11.748-40.067-32.918-42.01-64.717-1.708-27.95,5.647-60.252,12.759-91.492,12.474-54.789,24.256-106.54-18.124-120.423-14.454-4.733-35.259-2.584-67.454,6.97q-8.482,2.519-17.3,5.123C300.477,187.57,156.2,230.26,12.18,304.183l-.457-.89c144.1-73.965,288.433-116.671,393.816-147.852q8.811-2.608,17.3-5.124c32.4-9.618,53.387-11.764,68.05-6.961,43.246,14.166,31.365,66.349,18.787,121.595-7.1,31.171-14.434,63.4-12.736,91.209,1.918,31.392,15.467,52.283,41.419,63.865,61.674,27.524,149.142,3.521,250.423-24.273,62.562-17.168,133.471-36.627,208.691-46.937,86.441-11.848,164.865-9.7,239.749,6.556C1370.526,384.315,1461.244,470.8,1541.284,547.1c41.562,39.622,80.819,77.047,120.433,100.034,43.857,25.449,83.875,30.8,125.949,16.842,31.039-10.3,48.877-34.334,73.566-67.6,22.342-30.105,50.147-67.571,98.02-107.558,102.5-85.614,220.717-116.736,300.724-132.7l.195.98c-79.9,15.941-197.955,47.018-300.278,132.486-47.781,39.91-75.548,77.323-97.859,107.385-24.8,33.415-42.714,57.558-74.053,67.955a142.22,142.22,0,0,1-45.094,7.587" fill="#fff"/>
      <path id="Path_2177" data-name="Path 2177" d="M1735.558,657.423c-26.09,0-52.182-7.144-79.672-21.57-40.522-21.268-80.442-56.53-122.7-93.864-77.966-68.87-166.334-146.929-294.259-174.1-164.8-35-315.654-.729-436.867,26.807-101.02,22.948-188.263,42.767-252.595,16.157-26.75-11.066-41.474-30.606-45.015-59.737-3.111-25.6,2.562-55.033,8.047-83.5,9.629-49.96,18.724-97.148-24.744-109.677-14.44-4.163-35.107-1.979-67.011,7.077-20.745,5.889-42.761,11.832-66.068,18.125-98.4,26.566-220.874,59.629-341.346,115.305l-.42-.908c120.549-55.711,243.064-88.787,341.506-115.363,23.3-6.291,45.316-12.234,66.055-18.121,32.094-9.11,52.93-11.291,67.561-7.076,44.345,12.782,35.167,60.406,25.449,110.827C508,296.2,502.346,325.555,505.438,351c3.493,28.741,18.018,48.019,44.405,58.934,64.038,26.489,151.137,6.7,251.99-16.208,60.919-13.839,129.966-29.525,203.18-37.093,84.047-8.687,160.629-5.324,234.116,10.283,128.184,27.221,216.656,105.373,294.714,174.325,84.265,74.437,157.036,138.723,251.651,106.554,30.841-10.486,49-33.928,74.143-66.373,22.506-29.046,50.514-65.2,97.686-103.446,101.612-82.4,218.627-112.164,297.8-127.388l.191.982c-79.073,15.2-195.927,44.929-297.366,127.184-47.082,38.177-75.05,74.275-97.524,103.28-25.245,32.583-43.486,56.125-74.612,66.708a155.014,155.014,0,0,1-50.258,8.682" fill="#fff"/>
      <path id="Path_2178" data-name="Path 2178" d="M1727.477,642.513c-25.307,0-50.617-6.183-77.128-18.627-41.381-19.424-81.974-52.43-124.95-87.375-75.875-61.694-161.873-131.62-284.562-157.073-161.582-33.521-308.007-7.451-425.665,13.494-100.584,17.907-187.45,33.373-254.2,7.842-27.155-10.386-42.852-28.3-47.987-54.767-4.512-23.256-.52-49.821,3.342-75.512,6.783-45.129,13.191-87.755-31.405-98.906-14.407-3.6-34.938-1.388-66.569,7.183-31.979,8.666-66.851,16.853-103.77,25.521-92.2,21.648-196.705,46.184-300.12,88.432l-.378-.926c103.488-42.277,208.032-66.823,300.269-88.479,36.911-8.666,71.775-16.852,103.738-25.513,31.8-8.618,52.491-10.834,67.073-7.189,45.476,11.372,39,54.435,32.151,100.026-3.849,25.607-7.829,52.085-3.35,75.173,5.064,26.1,20.557,43.771,47.364,54.024,66.489,25.431,153.23,9.987,253.667-7.893,59.257-10.549,126.42-22.507,197.614-27.388,81.641-5.6,156.363-1.051,228.429,13.9,122.927,25.5,209.026,95.51,284.99,157.276,85.694,69.678,159.7,129.856,257.292,95.876,30.632-10.665,50.079-34.683,74.7-65.091,22.67-28,50.887-62.844,97.368-99.387,100.743-79.2,216.547-107.606,294.89-122.08l.181.983c-78.238,14.456-193.882,42.817-294.453,121.883-46.394,36.473-74.569,71.27-97.209,99.231-24.723,30.531-44.249,54.647-75.151,65.4-19.036,6.628-37.6,9.958-56.173,9.958" fill="#fff"/>
      <path id="Path_2179" data-name="Path 2179" d="M1718.486,627.824c-24.306,0-48.614-5.225-73.932-15.707-42.3-17.515-83.639-48.212-127.4-80.712-73.647-54.694-157.121-116.685-274.4-140.422-158.252-32.029-294.26-14.774-414.258.45-56.611,7.183-108.874,13.811-156.114,13.813-36.371,0-69.759-3.927-99.9-14.555-61.618-21.73-56.654-72.531-52.275-117.35,2.02-20.675,3.928-40.2-.4-55.9-4.834-17.528-16.817-27.764-37.711-32.214-14.352-3.058-34.745-.807-66.126,7.291-41.152,10.623-86.518,19.411-134.546,28.716C199.007,237.2,105.594,255.3,15.6,286.995l-.332-.943c90.063-31.723,183.513-49.827,265.964-65.8,48.013-9.3,93.363-18.087,134.486-28.7,31.965-8.25,51.878-10.434,66.584-7.3,46.643,9.935,42.882,48.432,38.9,89.189-2.231,22.829-4.537,46.436,1.323,67.172,6.631,23.469,23.081,39.543,50.29,49.138,69.057,24.354,155.481,13.389,255.552.694,120.074-15.235,256.171-32.5,414.582-.439,117.5,23.781,201.067,85.842,274.8,140.6,87.242,64.789,162.585,120.742,263.4,84.826,30.411-10.835,50.192-34.187,75.236-63.75,22.843-26.965,51.271-60.524,97.079-95.39,44.422-33.812,96.19-61.311,153.863-81.734,53.619-18.987,104.5-29.089,138.109-35.035l.174.984c-83.937,14.852-192.931,41.526-291.541,116.581-45.72,34.8-74.109,68.312-96.92,95.24-25.141,29.679-45,53.12-75.664,64.046-21.413,7.63-42.2,11.454-63,11.454" fill="#fff"/>
      <path id="Path_2180" data-name="Path 2180" d="M1708.374,613.411c-23.04,0-46.08-4.28-69.94-12.841-43.31-15.539-85.48-43.879-130.126-73.883-71.247-47.88-152-102.148-263.641-124.159-154.721-30.506-286.332-20.826-402.45-12.287-99.934,7.351-186.24,13.7-258.222-9.633-62.438-20.237-61.061-64.974-59.847-104.444,1.139-37.013,2.122-68.979-44.879-77.3-14.456-2.559-34.1-.345-65.683,7.4-49.1,12.043-103.275,20.071-160.633,28.57C175.6,246.3,95.616,258.149,16.737,281.265l-.281-.96C95.4,257.17,175.42,245.313,252.806,233.848c57.334-8.5,111.488-16.52,160.542-28.551,31.725-7.782,51.491-10,66.1-7.415,47.853,8.469,46.809,42.395,45.7,78.313-1.2,39.118-2.568,83.456,59.156,103.462,71.8,23.27,158.01,16.928,257.841,9.587,116.18-8.544,247.863-18.229,402.716,12.3,111.839,22.051,192.68,76.378,264.005,124.31,88.953,59.78,165.774,111.406,270.111,73.388,30.171-10.994,50.278-33.655,75.735-62.345,23.021-25.945,51.672-58.235,96.822-91.455,97.969-72.081,205.939-97.43,289.057-111.46l.166.986c-83.009,14.012-190.831,39.324-288.63,111.279-45.065,33.158-73.678,65.4-96.668,91.314-25.55,28.795-45.731,51.539-76.141,62.62-24.2,8.818-47.57,13.226-70.943,13.227" fill="#fff"/>
      <path id="Path_2181" data-name="Path 2181" d="M1696.861,599.345a221.774,221.774,0,0,1-64.969-10.07c-44.426-13.494-87.556-39.432-133.22-66.893-68.623-41.267-146.4-88.041-252.09-108.309-150.789-28.915-277.772-26.641-389.812-24.635-99.959,1.79-186.288,3.336-261.265-18.913-63.17-18.746-65.383-57.428-67.337-91.555-1.83-31.984-3.411-59.6-51.725-66.464-14.332-2.036-33.843.211-65.241,7.51-56.273,13.08-118.01,19.177-183.371,25.631C158.7,252.473,87.212,259.533,17.87,275.534l-.225-.974c69.4-16.016,140.924-23.078,210.087-29.908,65.329-6.451,127.034-12.544,183.243-25.61,31.526-7.328,51.148-9.579,65.609-7.527,49.125,6.975,50.8,36.324,52.583,67.4,1.934,33.8,4.127,72.108,66.623,90.654,74.828,22.206,161.084,20.659,260.963,18.872,112.085-2.009,239.126-4.282,390.017,24.653,105.865,20.3,183.724,67.124,252.417,108.434,90.882,54.654,169.371,101.855,277.615,61.537,29.911-11.14,50.33-33.083,76.183-60.864,23.211-24.943,52.1-55.985,96.62-87.6,97.187-69.005,203.968-92.976,286.138-106.151l.158.988c-82.062,13.157-188.7,37.094-285.718,105.978-44.437,31.552-73.286,62.553-96.467,87.462-25.942,27.878-46.432,49.9-76.564,61.12-27.5,10.243-53.891,15.345-80.291,15.346" fill="#fff"/>
      <path id="Path_2182" data-name="Path 2182" d="M1683.573,585.724a241.789,241.789,0,0,1-58.785-7.447c-45.689-11.378-89.958-34.88-136.826-59.761-65.7-34.877-140.159-74.408-239.465-92.9-145.913-27.167-267.714-32.06-375.176-36.377-100.721-4.045-187.706-7.54-266.3-28.8-63.766-17.249-69.577-49.883-74.7-78.675-4.8-26.966-8.949-50.256-58.7-55.622-14.335-1.547-33.108.661-64.8,7.62-62.956,13.825-131.287,16.947-203.629,20.252C143.615,256.83,79.944,259.739,19,269.8l-.163-.987c61-10.073,124.7-12.984,186.307-15.8,72.3-3.3,140.588-6.423,203.46-20.23,31.8-6.984,50.668-9.2,65.12-7.637,50.492,5.447,54.7,29.078,59.573,56.441,5.074,28.5,10.826,60.8,73.98,77.884,78.49,21.232,165.423,24.725,266.084,28.768,107.5,4.318,229.335,9.213,375.319,36.393,99.456,18.517,173.991,58.086,239.75,93,96.95,51.468,173.526,92.12,286.2,49.247,29.62-11.271,50.334-32.466,76.558-59.3,24.637-25.209,52.561-53.781,96.488-83.822C2044.122,357.8,2149.7,335.22,2230.9,322.917l.151.99c-81.1,12.286-186.529,34.833-282.807,100.676-43.846,29.986-71.732,58.52-96.337,83.7-26.31,26.921-47.092,48.185-76.918,59.534-31.475,11.977-61.425,17.911-91.413,17.911" fill="#fff"/>
      <path id="Path_2183" data-name="Path 2183" d="M1668,572.685a265.984,265.984,0,0,1-51.081-5.046c-47.155-9.187-92.82-30.232-141.166-52.514-62.354-28.736-133.026-61.308-225.336-77.961-137.97-24.891-252.7-36.448-353.933-46.644C792.494,380.046,702.688,371,618.527,350.357c-64.134-15.732-73.551-42.326-81.859-65.79-7.78-21.972-14.5-40.949-65.878-44.786-17.41-1.3-41.219,2.947-64.356,7.731-69.338,14.333-146.95,13.48-222,12.657-54.526-.6-110.911-1.217-164.3,3.9l-.095-.995c53.445-5.123,109.855-4.5,164.41-3.9,75,.825,152.557,1.676,221.789-12.637,23.208-4.8,47.105-9.057,64.632-7.748,52.029,3.885,58.85,23.147,66.747,45.45,8.223,23.225,17.544,49.548,81.154,65.151,84.093,20.628,173.866,29.67,277.815,40.14,101.247,10.2,216,21.757,354.011,46.655,92.434,16.675,163.169,49.275,225.576,78.037,99.716,45.957,178.477,82.256,296.292,36.479,29.3-11.383,50.28-31.8,76.845-57.639,24.875-24.2,53.068-51.628,96.445-80.143,44.089-28.983,94.669-52.045,150.334-68.545,48.545-14.39,92.941-21.716,129.969-26.985l.14.99c-85.078,12.106-184.863,32.9-279.894,95.376-43.3,28.462-71.454,55.855-96.3,80.024-26.647,25.922-47.693,46.4-77.181,57.854C1736.5,565.74,1702.284,572.685,1668,572.685" fill="#fff"/>
      <path id="Path_2184" data-name="Path 2184" d="M1649.4,560.481c-65.009,0-122.1-22.376-188.057-48.222-58.4-22.886-124.595-48.825-209.012-63.55C1150,430.86,1060.8,416.4,982.1,403.644c-136.957-22.2-245.135-39.735-352.059-63.372-63.334-14-77.14-37.372-88.234-56.151s-19.838-33.594-73.793-30.7a455.79,455.79,0,0,0-63.96,7.841c-75.554,14.645-158.6,8.713-238.909,2.977-47.881-3.419-97.394-6.955-143.889-5.9l-.022-1c46.541-1.049,96.077,2.485,143.981,5.906,80.245,5.731,163.225,11.656,238.649-2.961a456.98,456.98,0,0,1,64.1-7.859c54.563-2.923,63.448,12.133,74.707,31.193,10.994,18.613,24.677,41.777,87.587,55.683,106.9,23.631,215.062,41.165,352,63.362,78.705,12.757,167.912,27.217,270.244,45.067,84.515,14.742,150.759,40.7,209.206,63.605,103.142,40.419,184.611,72.343,308.58,23.184,28.931-11.472,50.146-31.065,77.007-55.868,25.144-23.22,53.644-49.539,96.528-76.574,94.56-59.615,193.284-79.061,277.386-90.221l.13.991c-83.993,11.146-182.586,30.563-276.983,90.076-42.806,26.986-71.27,53.272-96.383,76.462-26.936,24.875-48.213,44.522-77.316,56.063-44.987,17.84-84.4,25.037-121.258,25.039" fill="#fff"/>
      <path id="Path_2185" data-name="Path 2185" d="M1627.091,549.141c-62.95,0-119.2-18.271-183.52-39.162-53.512-17.38-114.166-37.08-189.327-49.725-171.78-28.9-301.587-59.39-416.113-86.291-67.86-15.94-131.957-31-196.584-43.776-62-12.26-79.64-29.287-93.816-42.969-14.887-14.367-25.64-24.749-82.55-20.165a621.505,621.505,0,0,0-63.514,7.954c-81.709,14.775-169.633,2.829-254.661-8.725-43.468-5.907-84.525-11.486-124.63-13.688l.054-1c40.146,2.2,81.222,7.785,124.71,13.694,84.953,11.545,172.8,23.481,254.349,8.733a622.342,622.342,0,0,1,63.612-7.967c57.357-4.615,68.249,5.894,83.324,20.443,14.082,13.59,31.607,30.5,93.316,42.707,64.645,12.784,128.749,27.841,196.619,43.783,114.511,26.9,244.3,57.384,416.05,86.279,75.235,12.657,135.925,32.369,189.471,49.76,107.6,34.95,192.6,62.554,324.232,9.3,28.509-11.534,50.983-31.2,77.005-53.97,25.457-22.276,54.31-47.523,96.777-73.134,94-56.687,191.493-74.733,274.467-84.91l.121.992c-82.869,10.165-180.235,28.184-274.073,84.775-42.389,25.565-71.208,50.782-96.632,73.03-26.091,22.83-48.625,42.548-77.29,54.144-53.228,21.533-98.845,29.883-141.4,29.884" fill="#fff"/>
      <path id="Path_2186" data-name="Path 2186" d="M1599.444,539.582c-59.609,0-114.466-14.335-179.133-31.231-47.07-12.3-100.421-26.24-164.151-36.552-152.73-24.714-269.629-60.252-372.766-91.607-78.761-23.943-153.153-46.56-230.338-60.09-57.928-10.156-80.192-21.472-96.448-29.735-20.656-10.5-32.033-16.282-94.258-9.68l-5,.527c-15.62,1.639-35.059,3.68-58.065,7.54-87.894,14.746-180.214-4.16-269.5-22.443C92.67,258.709,57.61,251.529,23.5,246.852l.136-.991c34.147,4.681,69.222,11.865,106.356,19.47,89.192,18.266,181.42,37.157,269.129,22.437,23.035-3.866,42.492-5.908,58.125-7.548l5-.528c62.517-6.633,73.991-.8,94.817,9.784,16.2,8.234,38.387,19.511,96.168,29.641,77.245,13.541,151.665,36.165,230.456,60.118,103.107,31.346,219.971,66.874,372.635,91.576,63.777,10.32,117.152,24.267,164.244,36.572,118.245,30.9,203.679,53.219,345.377-5.237,28.013-11.556,50.611-30.259,76.779-51.917,25.827-21.375,55.1-45.6,97.247-69.847,106.126-61.05,217.855-73.579,271.549-79.6l.112.994c-53.627,6.013-165.216,18.527-271.163,79.473-42.074,24.2-71.311,48.4-97.107,69.751-26.23,21.708-48.884,40.457-77.036,52.071-64.468,26.6-117.317,36.51-166.878,36.511" fill="#fff"/>
      <path id="Path_2187" data-name="Path 2187" d="M1564.682,531.943c-57.208,0-111.777-11.16-177.331-24.564-37.8-7.729-80.644-16.49-129.275-24.035-146.156-22.676-257.053-64.582-354.894-101.555-80.514-30.426-156.563-59.163-238.616-71.773-32.666-5.02-54.9-8.9-71.145-11.732-47.663-8.314-47.663-8.315-121.651-4.578l-12.291.619c-14.825.744-33.223,3.608-54.527,6.926L396.9,302.5c-94.181,14.566-190.471-12.268-283.587-38.22-30.988-8.636-60.257-16.793-88.695-23.176l.218-.975c28.464,6.388,57.745,14.548,88.745,23.188,93.014,25.923,189.194,52.728,283.166,38.194l8.052-1.25c21.332-3.322,39.754-6.191,54.632-6.937l12.29-.619c74.1-3.74,74.1-3.742,121.874,4.592,16.234,2.832,38.468,6.71,71.125,11.728,82.155,12.626,158.252,41.382,238.816,71.826,97.8,36.956,208.641,78.843,354.694,101.5,48.655,7.548,91.512,16.312,129.323,24.044,132.741,27.142,220.436,45.073,376.218-20.436,27.418-11.531,50.048-29.209,76.25-49.679,26.276-20.528,56.059-43.8,98.021-66.746,105.7-57.812,215.746-68.942,268.631-74.291l.1,1c-52.818,5.342-162.726,16.458-268.249,74.173-41.892,22.912-71.64,46.152-97.887,66.656s-48.936,38.231-76.478,49.813c-79.1,33.265-140.68,45.056-199.475,45.058" fill="#fff"/>
      <path id="Path_2188" data-name="Path 2188" d="M1520.961,527.306c-57,0-114.124-9.172-185.492-20.631-23.829-3.826-48.47-7.783-75.477-11.786-141.785-21.016-247.958-69.429-341.634-112.143C837.779,346,761.668,311.3,676.075,299.93c-87.889-11.674-104.767-8.617-138.391-2.53a723.927,723.927,0,0,1-81.034,10.561c-12.288.977-26.641,3.094-43.262,5.545-6.01.886-12.3,1.814-18.873,2.743C293.854,330.485,189.5,293.093,97.428,260.1c-25.037-8.971-48.686-17.444-71.693-24.746l.3-.953c23.024,7.307,46.681,15.783,71.727,24.758,91.96,32.95,196.19,70.3,296.61,56.1,6.569-.929,12.858-1.856,18.867-2.743,16.638-2.453,31.008-4.572,43.329-5.552a723.045,723.045,0,0,0,80.935-10.548c33.727-6.107,50.655-9.172,138.7,2.523,85.74,11.388,161.917,46.123,242.566,82.9,93.615,42.687,199.721,91.069,341.366,112.064,27.013,4,51.656,7.961,75.488,11.787,160.5,25.772,248.912,39.966,425.97-35.906,26.7-11.44,49.223-28.018,75.308-47.214,26.838-19.75,57.256-42.135,99.21-63.872,105.414-54.617,213.682-64.318,265.712-68.98l.09,1c-51.967,4.656-160.1,14.345-265.341,68.871-41.886,21.7-72.27,44.062-99.078,63.79-26.135,19.233-48.705,35.843-75.507,47.328-98.565,42.237-169.7,56.606-241.03,56.606" fill="#fff"/>
      <path id="Path_2189" data-name="Path 2189" d="M1467.52,526.5c-58.267,0-120.168-8.015-205.612-20.065-138.2-19.491-240.135-74.383-330.068-122.813-80.007-43.086-155.578-83.783-244.256-93.778-81.681-9.2-107.015-.513-139.09,10.491-21.981,7.541-46.9,16.089-94.672,21.261-9.322,1.008-19.535,2.485-31.359,4.2-9.579,1.385-19.485,2.817-30.333,4.206-107.412,13.755-215.1-34.126-310.11-76.367C62.781,245.077,44.61,237,26.857,229.6l.383-.922c17.765,7.4,35.942,15.48,55.186,24.035C177.317,294.9,284.87,342.717,392,329c10.839-1.387,20.741-2.819,30.316-4.2,11.835-1.712,22.055-3.19,31.394-4.2,47.665-5.16,72.523-13.688,94.456-21.213,32.194-11.045,57.623-19.768,139.527-10.538,88.868,10.016,164.522,50.757,244.617,93.89,89.859,48.391,191.707,103.238,329.733,122.7,212.623,29.985,296.386,35.889,497.377-51.847,25.792-11.259,48.033-26.643,73.784-44.457,27.558-19.063,58.791-40.668,100.982-61.29,105.3-51.462,211.671-59.707,262.792-63.669l.079,1c-51.061,3.957-157.309,12.192-262.431,63.571-42.125,20.588-73.326,42.171-100.852,61.213-25.794,17.844-48.071,33.254-73.953,44.552-100.606,43.915-175.091,64.977-249.064,70.426-14.388,1.059-28.708,1.559-43.241,1.559" fill="#fff"/>
      <path id="Path_2190" data-name="Path 2190" d="M1413.722,529.917c-44.4,0-92.521-4.276-149.9-11.938-60.373-8.062-118.3-25.3-177.109-52.686-51.887-24.168-97.818-52.916-142.237-80.717C865.372,335.064,790.652,288.3,699.093,279.758c-80.286-7.49-110.122,6.8-144.669,23.356-24.636,11.8-52.558,25.18-103.432,32.115-5.763.786-11.94,1.707-18.479,2.682-12.667,1.889-27.023,4.03-42.767,5.833-51.033,5.842-106.2-2.464-168.64-25.392-54.451-19.994-107.407-48.525-154.128-73.7-13.565-7.308-26.378-14.212-39-20.806l.463-.886c12.628,6.6,25.443,13.5,39.011,20.812,97.482,52.522,207.976,112.056,322.18,98.977,15.727-1.8,30.074-3.94,42.733-5.828,6.543-.976,12.723-1.9,18.492-2.684,50.718-6.913,78.566-20.255,103.136-32.026,34.681-16.615,64.634-30.964,145.193-23.45,91.8,8.562,166.613,55.389,245.824,104.967,90.536,56.665,184.155,115.259,318.947,133.259,198.766,26.542,286.363,12.412,493.3-79.574,24.633-10.95,47.363-25.7,71.427-41.317,28.5-18.5,60.809-39.464,103.587-59.091,105.386-48.35,209.728-55.11,259.873-58.359l.064,1c-50.084,3.245-154.3,10-259.519,58.271-42.713,19.6-74.986,40.54-103.461,59.019-24.1,15.639-46.859,30.411-71.565,41.393-147.419,65.531-234.342,91.589-343.937,91.589" fill="#fff"/>
      <path id="Path_2191" data-name="Path 2191" d="M1370.693,536.767c-32.265,0-66.7-2.434-104.952-7.242-59.06-7.425-115.343-25.464-172.065-55.146-50.095-26.214-94.307-57.98-137.063-88.7-78-56.044-151.674-108.979-246.012-116.008-80.2-5.973-114.852,14.514-151.541,36.208-28.548,16.879-58.068,34.332-110.9,42.984l-4.233.7c-16.433,2.7-35.06,5.766-56.567,7.933-122.116,12.3-240.232-63.6-335.144-124.6q-11.79-7.576-23.115-14.8l.536-.844q11.323,7.2,23.12,14.807c94.78,60.91,212.737,136.715,334.5,124.445,21.476-2.164,40.087-5.225,56.506-7.925l4.234-.7c52.645-8.622,82.083-26.026,110.55-42.858,36.829-21.774,71.614-42.341,152.125-36.344,94.619,7.05,168.4,60.065,246.521,116.193,86.966,62.485,176.893,127.1,308.67,143.666,197.282,24.8,282.746-13.87,489.214-107.3,23.1-10.453,44.835-23.665,67.843-37.652,29.788-18.107,63.549-38.63,107.42-57.416,105.726-45.274,207.867-50.525,256.953-53.049l.05,1c-49.027,2.521-151.047,7.766-256.61,52.97-43.8,18.759-77.534,39.262-107.293,57.352-23.036,14-44.8,27.23-67.951,37.708-109.221,49.426-179.748,80.619-250.418,98.356-43.473,10.911-86.527,16.269-134.381,16.269" fill="#fff"/>
      <path id="Path_2192" data-name="Path 2192" d="M1342.22,545.724a637.381,637.381,0,0,1-74.563-4.655c-57.809-6.8-112.507-25.619-167.218-57.542-48.364-28.219-90.9-62.965-132.033-96.567-76.745-62.691-149.234-121.906-246.3-127.376-80.643-4.542-118.689,21.5-158.967,49.083-31.217,21.374-63.5,43.476-117.81,53.829a586.361,586.361,0,0,1-60.355,8.742c-57.889,5.028-119.088-9.857-187.11-45.508-58.7-30.763-112.633-71.68-160.221-107.78l-7.415-5.624.6-.8,7.415,5.624c96.541,73.236,216.7,164.388,346.64,153.089a585.626,585.626,0,0,0,60.254-8.728c54.109-10.314,86.3-32.356,117.433-53.672,40.423-27.678,78.6-53.825,159.589-49.256,97.387,5.488,170,64.8,246.873,127.6,83.5,68.206,169.833,138.733,298.736,153.89C1428.7,559,1513.4,518.653,1667.15,445.41c26.888-12.809,54.694-26.055,85.758-40.362,20.989-9.666,41.085-21.1,62.361-33.21,31.6-17.98,67.406-38.36,113.151-56.52,106.372-42.228,206.1-45.949,254.033-47.739l.038,1c-47.874,1.787-147.489,5.5-253.7,47.669-45.68,18.134-81.459,38.5-113.025,56.459-21.3,12.119-41.409,23.565-62.438,33.249-31.058,14.3-58.86,27.549-85.747,40.357-128.394,61.163-208.684,99.411-325.359,99.411" fill="#fff"/>
      <path id="Path_2193" data-name="Path 2193" d="M1322.853,555.631a490.2,490.2,0,0,1-53.279-3.017c-126.454-13.794-209.408-90.241-289.63-164.172C904.569,318.979,833.375,253.367,733.618,249.5c-81.366-3.154-122.821,28.492-166.7,62-33.857,25.852-68.868,52.585-124.412,64.633a426.665,426.665,0,0,1-59.909,8.855c-60.263,4.385-123.04-13.557-191.9-54.855C133.019,295.537,80.357,250.118,31.362,206.563l.664-.747c84.335,74.97,211.785,188.256,350.494,178.171a425.434,425.434,0,0,0,59.769-8.835c55.327-12,90.247-38.664,124.018-64.45,44.03-33.62,85.607-65.383,167.349-62.2,100.125,3.884,171.452,69.617,246.966,139.209,80.1,73.821,162.932,150.155,289.06,163.913,138.05,15.056,219.728-28.021,343.365-93.228,39.9-21.043,85.121-44.894,137.689-69.527,17.922-8.4,35.334-17.692,53.769-27.53,35.936-19.179,73.094-39.011,121.993-56.86,94.627-34.544,180.042-40.833,251.111-42.429l.022,1c-70.987,1.594-156.3,7.875-250.791,42.368-48.832,17.825-85.96,37.641-121.865,56.8-18.445,9.845-35.869,19.143-53.814,27.553-52.546,24.624-97.758,48.468-137.647,69.507-107.049,56.458-182.707,96.349-290.661,96.354" fill="#fff"/>
      <path id="Path_2194" data-name="Path 2194" d="M1310.267,566.152c-12.451,0-25.342-.646-38.774-1.992C1147.7,551.758,1068.18,469.6,991.279,390.137c-73.908-76.363-143.716-148.492-246.154-150.726-82.266-1.782-127.137,35.494-174.648,74.971-36.472,30.306-74.186,61.644-130.808,75.381a331.5,331.5,0,0,1-59.462,8.97c-61.365,3.589-124.18-16.622-192.047-61.778C129.6,297.99,76.607,246.262,32.5,200.8l.718-.7c103.921,107.1,217.871,205.175,346.935,197.631a330.641,330.641,0,0,0,59.285-8.943c56.4-13.683,94.02-44.946,130.4-75.179,47.658-39.6,92.679-76.987,175.308-75.2C848,240.654,917.943,312.926,992,389.442c76.776,79.329,156.166,161.358,279.6,173.723,122.477,12.27,200.074-33.828,307.465-97.633,48.091-28.571,102.6-60.955,169.508-92.849,13.13-6.259,26-12.75,39.632-19.624,40.324-20.335,82.021-41.362,136.379-59.427,96.479-32.064,183.318-36.68,248.192-37.119l.006,1c-64.8.439-151.536,5.048-247.882,37.068-54.289,18.042-95.952,39.052-136.244,59.371-13.635,6.876-26.513,13.37-39.653,19.634-66.87,31.875-121.355,64.246-169.426,92.806-95.793,56.912-167.913,99.76-269.3,99.76" fill="#fff"/>
      <path id="Path_2195" data-name="Path 2195" d="M1301.428,577q-13.648,0-28.019-1.292c-121.189-11.012-197.332-98.777-270.968-183.652-72.353-83.4-140.694-162.168-245.809-162.73-83.283-.467-131.588,42.519-182.748,88.006-39.062,34.731-79.455,70.644-137.046,86.067a275.128,275.128,0,0,1-59.016,9.082c-32.717,1.432-66.457-4.377-100.294-17.274-29.929-11.408-60.849-28.72-91.9-51.456-62-45.4-116.44-106.614-151.995-148.712l.765-.646c88.025,104.225,206.594,223.084,343.379,217.089a274.158,274.158,0,0,0,58.8-9.049c57.363-15.362,97.665-51.2,136.641-85.848,24.636-21.9,50.112-44.556,79.205-61.077a203.5,203.5,0,0,1,104.212-27.182c105.569.565,174.054,79.5,246.56,163.075,73.506,84.725,149.514,172.335,270.3,183.31,110.983,10.092,186.349-40.446,281.77-104.419,53.368-35.78,113.857-76.334,191.124-113.79q7.073-3.429,14.21-6.913c47.892-23.344,97.417-47.483,162.053-66.8,99.376-29.7,187.573-32.38,245.27-31.809l-.01,1c-57.637-.571-145.726,2.108-244.974,31.767-64.558,19.292-114.044,43.412-161.9,66.739q-7.141,3.482-14.212,6.914c-77.2,37.425-137.661,77.959-191,113.721C1468.478,529.681,1397.9,577,1301.428,577" fill="#fff"/>
      <path id="Path_2196" data-name="Path 2196" d="M1296.5,588.135q-10.374,0-21.171-.886c-118.65-9.433-191.47-102.788-261.891-193.069C942.72,303.523,875.879,217.872,768.14,219.236c-84.38.738-136.187,49.474-191.037,101.072-41.612,39.146-84.641,79.625-143.1,96.721a232.773,232.773,0,0,1-58.568,9.2c-62.57,1.824-127.288-23.658-192.332-75.714-47.818-38.27-96.338-91.012-148.33-161.238l.8-.6C155.751,351,266.915,428.354,375.408,425.226a231.794,231.794,0,0,0,58.316-9.157c58.228-17.028,101.168-57.424,142.694-96.489,26.354-24.792,53.6-50.427,84.2-69.345,34.289-21.2,69.455-31.666,107.509-32,49.338-.62,93,16.4,137.447,53.541,39.214,32.773,72.941,76.011,108.648,121.788,70.288,90.111,142.969,183.289,261.183,192.688,102.076,8.435,172.852-44.88,262.445-112.386,56.927-42.892,121.45-91.507,206.367-133.55,49.8-24.436,105.656-49.631,176.515-68.371,76.42-20.211,155.695-28.879,242.351-26.5l-.027,1c-86.568-2.381-165.744,6.279-242.068,26.465-70.775,18.718-126.574,43.889-176.33,68.3-84.831,42-149.313,90.587-206.206,133.452-83.446,62.874-150.6,113.465-241.957,113.469" fill="#fff"/>
      <path id="Path_2197" data-name="Path 2197" d="M1292.48,599.339q-7.506,0-15.236-.544c-116.117-8.224-185.66-106.841-252.913-202.211-69.018-97.87-134.2-190.291-244.685-187.436-85.493,2.228-143.361,59.2-199.324,114.292-57.571,56.677-117.1,115.285-207.271,116.532-.981.014-1.965.021-2.946.021-110.7,0-223.118-86.272-334.186-256.483l.838-.546C147.626,352.872,259.765,438.992,370.105,438.992q1.467,0,2.932-.02c89.767-1.241,149.153-59.706,206.584-116.245,28.07-27.634,57.1-56.21,89.2-77.534,36.012-23.922,72.255-36.04,110.8-37.044a174.639,174.639,0,0,1,75.664,14.576c21.6,9.374,42.288,23.15,63.255,42.115,38.971,35.25,71.826,81.841,106.61,131.168,67.119,95.179,136.523,193.6,252.166,201.789,94.316,6.677,160.961-49.379,245.34-120.353,91.406-76.883,205.165-172.568,396.161-216.341a888.287,888.287,0,0,1,239.429-21.189l-.047,1a887.492,887.492,0,0,0-239.159,21.164C1728.278,305.8,1614.622,401.395,1523.3,478.21c-79.944,67.243-144.013,121.125-230.817,121.129" fill="#fff"/>
    </g>
  </g>
</svg>