<svg xmlns="http://www.w3.org/2000/svg" xmlns:xlink="http://www.w3.org/1999/xlink" id="Group_820" data-name="Group 820" width="362.287" height="104.558" viewBox="0 0 362.287 104.558">
  <defs>
    <clipPath id="clip-path">
      <rect id="Rectangle_314" data-name="Rectangle 314" width="362.287" height="104.558" fill="none"/>
    </clipPath>
  </defs>
  <path id="Path_2200" data-name="Path 2200" d="M263.292,70.491h20.262V80.27h-32.6V18.779h12.334Z" transform="translate(-120.985 -9.053)" fill="#fff"/>
  <g id="Group_704" data-name="Group 704">
    <g id="Group_703" data-name="Group 703" clip-path="url(#clip-path)">
      <path id="Path_2201" data-name="Path 2201" d="M335.531,76.013a30.241,30.241,0,0,1-11.452-11.231,31.418,31.418,0,0,1-4.229-16.255,31.251,31.251,0,0,1,4.229-16.165A30.262,30.262,0,0,1,335.531,21.13a33.137,33.137,0,0,1,31.759,0,30.044,30.044,0,0,1,11.364,11.232,31.518,31.518,0,0,1,4.184,16.165,31.687,31.687,0,0,1-4.184,16.255,29.935,29.935,0,0,1-11.408,11.231,33.051,33.051,0,0,1-31.715,0m25.636-9.47a17.206,17.206,0,0,0,6.607-7.18,23.551,23.551,0,0,0,2.379-10.836,23.281,23.281,0,0,0-2.379-10.792,16.979,16.979,0,0,0-6.607-7.092,19.061,19.061,0,0,0-9.779-2.467,19.3,19.3,0,0,0-9.823,2.467,16.884,16.884,0,0,0-6.651,7.092,23.287,23.287,0,0,0-2.379,10.792,23.557,23.557,0,0,0,2.379,10.836,17.107,17.107,0,0,0,6.651,7.18,19.021,19.021,0,0,0,9.823,2.511,18.788,18.788,0,0,0,9.779-2.511" transform="translate(-154.197 -8.233)" fill="#fff"/>
      <path id="Path_2202" data-name="Path 2202" d="M495.785,36.541a14.447,14.447,0,0,0-5.815-5.9,17.7,17.7,0,0,0-8.634-2.026,18.881,18.881,0,0,0-9.69,2.467,17.037,17.037,0,0,0-6.607,7.048A22.617,22.617,0,0,0,462.661,48.7a22.657,22.657,0,0,0,2.423,10.748,17.137,17.137,0,0,0,6.74,7.048,19.88,19.88,0,0,0,10.043,2.467q7.046,0,11.54-3.744a17.87,17.87,0,0,0,5.9-10.44H478.166V45.351h33.3V56.1a28.908,28.908,0,0,1-5.286,11.893,29.847,29.847,0,0,1-10.44,8.766,30.7,30.7,0,0,1-14.315,3.3,32.4,32.4,0,0,1-16.077-4.009,29.151,29.151,0,0,1-11.276-11.144,31.962,31.962,0,0,1-4.1-16.209,32.209,32.209,0,0,1,4.1-16.253,29.077,29.077,0,0,1,11.276-11.188A34.332,34.332,0,0,1,499.4,22.314a25.869,25.869,0,0,1,10.571,14.227Z" transform="translate(-216.93 -8.315)" fill="#fff"/>
      <path id="Path_2203" data-name="Path 2203" d="M592.889,76.013a30.241,30.241,0,0,1-11.452-11.231,31.418,31.418,0,0,1-4.229-16.255,31.25,31.25,0,0,1,4.229-16.165A30.262,30.262,0,0,1,592.889,21.13a33.136,33.136,0,0,1,31.759,0,30.032,30.032,0,0,1,11.364,11.232A31.508,31.508,0,0,1,640.2,48.527a31.678,31.678,0,0,1-4.185,16.255A29.925,29.925,0,0,1,624.6,76.013a33.051,33.051,0,0,1-31.715,0m25.636-9.47a17.206,17.206,0,0,0,6.607-7.18,23.552,23.552,0,0,0,2.379-10.836,23.282,23.282,0,0,0-2.379-10.792,16.979,16.979,0,0,0-6.607-7.092,19.061,19.061,0,0,0-9.779-2.467,19.3,19.3,0,0,0-9.823,2.467,16.884,16.884,0,0,0-6.651,7.092,23.288,23.288,0,0,0-2.379,10.792,23.558,23.558,0,0,0,2.379,10.836,17.107,17.107,0,0,0,6.651,7.18,19.021,19.021,0,0,0,9.823,2.511,18.788,18.788,0,0,0,9.779-2.511" transform="translate(-278.268 -8.233)" fill="#fff"/>
      <path id="Path_2204" data-name="Path 2204" d="M266.9,153.869a11.191,11.191,0,0,1,4.7,4.462,13.294,13.294,0,0,1,1.657,6.72,13.093,13.093,0,0,1-1.657,6.684,11.252,11.252,0,0,1-4.7,4.426,15.189,15.189,0,0,1-7.048,1.566h-8.888V152.3h8.888a15.2,15.2,0,0,1,7.048,1.566m-1.038,17.338a8.324,8.324,0,0,0,2.186-6.156,8.516,8.516,0,0,0-2.186-6.21,8.257,8.257,0,0,0-6.192-2.24h-3.606v16.792h3.606a8.375,8.375,0,0,0,6.192-2.186" transform="translate(-120.986 -73.424)" fill="#fff"/>
      <path id="Path_2205" data-name="Path 2205" d="M305.078,156.384v6.374h8.559V166.8h-8.559v6.739h9.652v4.152H299.978V152.232H314.73v4.153Z" transform="translate(-144.617 -73.39)" fill="#fff"/>
      <path id="Path_2206" data-name="Path 2206" d="M339.366,176.732A7.858,7.858,0,0,1,336,174.109a6.9,6.9,0,0,1-1.275-4.043h5.463a3.531,3.531,0,0,0,1.111,2.477,3.932,3.932,0,0,0,2.75.91,4.229,4.229,0,0,0,2.8-.856,2.783,2.783,0,0,0,1.02-2.24,2.588,2.588,0,0,0-.692-1.857,4.847,4.847,0,0,0-1.73-1.147,28.729,28.729,0,0,0-2.859-.929,30.587,30.587,0,0,1-4.025-1.439,7.046,7.046,0,0,1-2.659-2.149,6.122,6.122,0,0,1-1.111-3.843,6.873,6.873,0,0,1,1.129-3.934,7.185,7.185,0,0,1,3.169-2.568,11.537,11.537,0,0,1,4.662-.892,10.116,10.116,0,0,1,6.393,1.912,7.091,7.091,0,0,1,2.713,5.336h-5.609a2.916,2.916,0,0,0-1.111-2.167,4.188,4.188,0,0,0-2.75-.856,3.542,3.542,0,0,0-2.386.765,2.764,2.764,0,0,0-.893,2.222,2.294,2.294,0,0,0,.674,1.694,5.127,5.127,0,0,0,1.675,1.093q1,.419,2.823.965a29.844,29.844,0,0,1,4.043,1.457,7.278,7.278,0,0,1,2.7,2.186,6.077,6.077,0,0,1,1.129,3.825,7.2,7.2,0,0,1-1.056,3.788A7.47,7.47,0,0,1,349,176.6a10.563,10.563,0,0,1-4.845,1.038,12.076,12.076,0,0,1-4.79-.911" transform="translate(-161.367 -73.085)" fill="#fff"/>
      <rect id="Rectangle_312" data-name="Rectangle 312" width="5.1" height="25.424" transform="translate(195.464 78.879)" fill="#fff"/>
      <path id="Path_2207" data-name="Path 2207" d="M412.107,159.645a5.972,5.972,0,0,0-2.4-2.44,7.317,7.317,0,0,0-3.569-.838,7.8,7.8,0,0,0-4.007,1.02,7.046,7.046,0,0,0-2.732,2.914,10.282,10.282,0,0,0,.018,8.815,7.087,7.087,0,0,0,2.787,2.914,8.224,8.224,0,0,0,4.152,1.02,7.2,7.2,0,0,0,4.772-1.548,7.387,7.387,0,0,0,2.44-4.317h-8.742v-3.9h13.769v4.444a11.959,11.959,0,0,1-2.185,4.918,12.341,12.341,0,0,1-4.317,3.624,12.694,12.694,0,0,1-5.919,1.366,13.391,13.391,0,0,1-6.647-1.658,12.053,12.053,0,0,1-4.662-4.608,14.141,14.141,0,0,1,0-13.423,12.024,12.024,0,0,1,4.662-4.625,14.194,14.194,0,0,1,14.078.437,10.7,10.7,0,0,1,4.371,5.883Z" transform="translate(-189.543 -73.118)" fill="#fff"/>
      <path id="Path_2208" data-name="Path 2208" d="M469.909,177.693h-5.1l-11.547-17.448v17.448h-5.1V152.232h5.1l11.547,17.483V152.232h5.1Z" transform="translate(-216.057 -73.39)" fill="#fff"/>
      <path id="Path_2209" data-name="Path 2209" d="M546.172,152.3l-7.1,25.424h-6.01l-4.772-18.1-4.991,18.1-5.974.036-6.848-25.46h5.464l4.48,19.742,5.172-19.742h5.682l4.881,19.632,4.517-19.632Z" transform="translate(-246.097 -73.424)" fill="#d23755"/>
      <rect id="Rectangle_313" data-name="Rectangle 313" width="5.1" height="25.424" transform="translate(302.66 78.879)" fill="#d23755"/>
      <path id="Path_2210" data-name="Path 2210" d="M624.282,177.693h-5.1l-11.547-17.448v17.448h-5.1V152.232h5.1l11.547,17.483V152.232h5.1Z" transform="translate(-290.479 -73.39)" fill="#d23755"/>
      <path id="Path_2211" data-name="Path 2211" d="M669.372,159.645a5.976,5.976,0,0,0-2.4-2.44,7.322,7.322,0,0,0-3.57-.838,7.8,7.8,0,0,0-4.007,1.02,7.046,7.046,0,0,0-2.732,2.914,10.282,10.282,0,0,0,.018,8.815,7.087,7.087,0,0,0,2.787,2.914,8.224,8.224,0,0,0,4.152,1.02,7.2,7.2,0,0,0,4.772-1.548,7.392,7.392,0,0,0,2.44-4.317h-8.742v-3.9h13.769v4.444a11.953,11.953,0,0,1-2.185,4.918,12.348,12.348,0,0,1-4.316,3.624,12.7,12.7,0,0,1-5.92,1.366,13.391,13.391,0,0,1-6.647-1.658,12.054,12.054,0,0,1-4.662-4.608,14.141,14.141,0,0,1,0-13.423,12.025,12.025,0,0,1,4.662-4.625,14.194,14.194,0,0,1,14.078.437,10.7,10.7,0,0,1,4.371,5.883Z" transform="translate(-313.568 -73.118)" fill="#d23755"/>
      <path id="Path_2212" data-name="Path 2212" d="M110.159,38.182v66.375H38.182A38.183,38.183,0,0,1,0,66.375V0H71.977a38.183,38.183,0,0,1,38.182,38.182" fill="#d23755"/>
      <path id="Path_2213" data-name="Path 2213" d="M108.884,101.906c-.347-.134-.788-.9-1.017-1.167-.955-1.126-1.873-2.282-2.77-3.454a117.8,117.8,0,0,1-8.555-12.894C93.068,78.344,89.7,71.6,88.724,64.583c-.769-5.516-8.644-6.9-13.023-8.03-3.079-.8-6.194-1.451-9.316-2.05C46.5,50.689,40.232,47.42,35.6,39.792c0,0,1.226,12.941,16.755,18.117s27.515,7.083,30.24,11.714,8.99,25.608,26.289,32.283" transform="translate(-17.163 -19.183)" fill="#fff"/>
      <path id="Path_2214" data-name="Path 2214" d="M82.435,88s-1.09-6.539-18.253-11.17-20.024-5.857-24.11-9.944c0,0,3,7.628,13.621,11.17S74.125,83.228,82.435,88" transform="translate(-19.318 -32.243)" fill="#fff"/>
      <path id="Path_2215" data-name="Path 2215" d="M93.335,104.176s-1.09-6.539-18.253-11.17-19.615-5.993-23.7-10.08c0,0,2.452,7.9,13.077,11.442s21.93,5.585,28.877,9.808" transform="translate(-24.77 -39.978)" fill="#fff"/>
      <path id="Path_2216" data-name="Path 2216" d="M105.97,122.831s-.681-6.4-17.844-11.033-20.3-5.585-24.383-9.671c0,0,3.541,7.356,14.166,10.9s21.113,5.585,28.06,9.808" transform="translate(-30.73 -49.234)" fill="#fff"/>
      <path id="Path_2217" data-name="Path 2217" d="M123.29,143.073s-1.09-7.083-17.844-11.306c-13.94-3.513-16.482-4.495-23.293-9.127,0,0,2.452,6.539,13.077,10.08s21.113,6.13,28.06,10.352" transform="translate(-39.605 -59.124)" fill="#fff"/>
    </g>
  </g>
</svg>